<?xml version="1.0" standalone="no"?>
<!DOCTYPE svg PUBLIC "-//W3C//DTD SVG 20010904//EN"
 "http://www.w3.org/TR/2001/REC-SVG-20010904/DTD/svg10.dtd">
<svg version="1.0" xmlns="http://www.w3.org/2000/svg"
 width="300.000000pt" height="189.000000pt" viewBox="0 0 300.000000 189.000000"
 preserveAspectRatio="xMidYMid meet">

<g transform="translate(0.000000,189.000000) scale(0.100000,-0.100000)"
fill="#000000" stroke="none">
<path d="M210 1220 l0 -50 230 0 230 0 0 50 0 50 -230 0 -230 0 0 -50z"/>
<path d="M970 1138 c-59 -41 -75 -72 -75 -146 0 -55 4 -73 24 -101 28 -39 91
-70 141 -71 39 0 122 37 128 57 7 23 -27 25 -54 4 -19 -15 -41 -21 -77 -21
-44 0 -53 4 -88 39 -35 34 -39 44 -39 87 0 62 25 105 75 128 43 21 97 16 126
-10 10 -9 26 -14 34 -10 46 17 -36 66 -111 66 -36 0 -60 -6 -84 -22z"/>
<path d="M1230 995 c0 -158 1 -165 20 -165 18 0 20 7 20 80 0 91 17 120 69
120 46 0 61 -30 61 -122 0 -68 2 -78 18 -78 15 0 17 10 12 101 -5 91 -7 103
-29 120 -28 23 -62 24 -101 4 l-30 -16 0 61 c0 53 -2 60 -20 60 -19 0 -20 -7
-20 -165z"/>
<path d="M2154 1145 c-8 -20 4 -35 26 -35 25 0 35 17 20 35 -16 19 -39 19 -46
0z"/>
<path d="M2497 1153 c-4 -3 -7 -78 -7 -165 0 -151 1 -158 20 -158 19 0 20 7
20 165 0 131 -3 165 -13 165 -8 0 -17 -3 -20 -7z"/>
<path d="M1550 1053 c-17 -12 -25 -13 -28 -5 -2 7 -12 12 -23 12 -18 0 -19 -8
-19 -115 0 -108 1 -115 20 -115 18 0 20 7 20 74 0 87 22 126 71 126 22 0 29 5
29 20 0 25 -36 27 -70 3z"/>
<path d="M1679 1047 c-48 -32 -68 -91 -48 -143 18 -46 69 -84 114 -84 45 0 96
38 114 84 13 33 13 44 0 79 -17 49 -67 87 -114 87 -18 0 -47 -10 -66 -23z
m118 -32 c49 -34 37 -126 -19 -149 -87 -37 -156 76 -88 144 24 24 77 26 107 5z"/>
<path d="M1970 1053 c-17 -12 -25 -13 -28 -5 -2 7 -12 12 -23 12 -18 0 -19 -8
-19 -115 0 -108 1 -115 20 -115 18 0 20 7 20 78 0 94 15 122 65 122 50 0 65
-28 65 -122 0 -73 1 -78 21 -78 21 0 21 4 17 96 -4 91 -6 98 -32 120 -32 28
-72 31 -106 7z"/>
<path d="M2299 1055 c-40 -22 -59 -58 -59 -115 0 -43 5 -56 29 -80 50 -50 127
-52 172 -4 20 21 21 27 9 34 -20 13 -30 12 -30 0 0 -21 -61 -39 -93 -27 -34
11 -61 64 -51 101 15 61 94 90 130 47 22 -25 58 -17 43 10 -23 44 -100 61
-150 34z"/>
<path d="M2628 1054 c-81 -43 -75 -185 9 -220 48 -20 99 -12 132 21 22 22 24
27 11 35 -10 6 -21 3 -35 -10 -43 -41 -135 -11 -135 43 0 15 13 17 95 17 105
0 107 1 81 65 -25 58 -99 81 -158 49z m98 -32 c6 -4 16 -17 23 -29 12 -23 11
-23 -64 -23 -41 0 -75 3 -75 7 0 4 10 17 22 30 21 23 71 31 94 15z"/>
<path d="M2160 945 c0 -108 1 -115 20 -115 19 0 20 7 20 115 0 108 -1 115 -20
115 -19 0 -20 -7 -20 -115z"/>
<path d="M505 859 c-88 -55 -161 -102 -162 -106 -3 -9 79 -63 95 -63 14 0 189
106 215 130 14 13 17 29 15 77 l-3 60 -160 -98z"/>
</g>
</svg>
