<svg xmlns="http://www.w3.org/2000/svg" version="1.0" width="1361.000000pt" height="362.000000pt" viewBox="0 0 1361.000000 362.000000" preserveAspectRatio="xMidYMid meet">

<g transform="translate(0.000000,362.000000) scale(0.100000,-0.100000)" fill="#1fad1f" stroke="none">
<path d="M2135 3498 c-2 -13 -6 -76 -7 -140 -2 -96 -6 -121 -20 -135 -17 -16 -20 -15 -54 17 -20 19 -68 77 -106 128 -62 83 -114 132 -143 132 -13 0 -45 -282 -55 -487 -11 -222 -10 -220 -198 -366 -595 -462 -1021 -1001 -1252 -1587 -40 -102 -50 -140 -50 -186 0 -138 59 -263 180 -384 93 -94 180 -147 286 -174 114 -29 184 -20 312 41 63 30 77 33 103 24 54 -19 89 -52 184 -171 135 -170 122 -163 290 -157 168 5 220 21 447 134 393 197 776 511 990 813 137 193 149 205 175 191 34 -18 66 -13 114 17 128 82 215 274 188 415 -14 77 -45 131 -105 186 l-54 50 0 80 0 81 -104 0 c-75 0 -107 4 -115 14 -16 20 -47 114 -56 171 -8 57 -20 83 -78 169 -42 61 -55 87 -100 203 -40 102 -108 211 -178 287 -82 89 -108 128 -198 296 -84 156 -120 208 -191 274 -85 80 -194 114 -205 64z m138 -128 c18 -22 46 -63 62 -92 16 -29 52 -90 82 -135 70 -106 120 -209 139 -283 8 -33 19 -135 23 -228 8 -174 20 -224 54 -230 28 -6 39 43 44 198 3 80 9 149 14 154 31 33 189 -229 229 -379 13 -47 36 -101 56 -131 19 -28 34 -54 34 -59 0 -4 -20 -29 -44 -55 -45 -48 -47 -55 -61 -165 -9 -67 -21 -42 -35 73 -18 147 -17 145 -86 159 -100 20 -206 26 -251 14 -53 -14 -209 -117 -280 -184 -131 -123 -142 -214 -44 -357 64 -93 83 -137 71 -160 -14 -26 -99 -89 -175 -130 -77 -43 -139 -101 -235 -225 -90 -115 -170 -194 -226 -223 -21 -11 -73 -30 -114 -42 -41 -12 -121 -40 -177 -62 -90 -34 -108 -46 -152 -94 -28 -30 -75 -96 -105 -147 -72 -123 -87 -141 -142 -166 -211 -100 -487 53 -625 344 -59 125 -59 116 11 272 319 706 712 1183 1395 1692 94 70 208 154 254 186 l84 59 -6 -49 c-4 -27 -18 -73 -32 -103 -37 -81 -31 -132 17 -132 51 0 86 134 138 540 12 90 24 168 26 172 10 15 23 8 57 -32z m-369 -117 c24 -49 60 -110 80 -138 42 -58 44 -80 13 -126 -27 -40 -156 -141 -170 -132 -16 9 14 483 30 483 1 0 23 -39 47 -87z m850 -1176 c18 -24 21 -43 21 -117 0 -102 5 -111 99 -167 130 -77 181 -121 209 -179 15 -30 32 -86 39 -123 23 -134 -33 -301 -154 -462 -79 -106 -272 -288 -414 -392 -65 -48 -184 -135 -264 -193 -370 -272 -523 -346 -717 -346 -63 0 -92 5 -120 19 -53 28 -53 46 0 67 54 20 235 139 417 272 308 226 577 433 607 467 54 61 65 139 38 255 -25 103 -85 202 -124 202 -41 1 -44 15 -22 83 26 78 22 102 -29 159 -54 62 -72 104 -78 179 -6 82 20 148 70 179 47 29 170 79 258 106 97 30 137 28 164 -9z m385 -91 c42 -18 84 -36 94 -39 24 -9 40 -55 34 -101 -4 -31 -16 -49 -54 -83 -28 -25 -54 -42 -63 -39 -126 42 -146 54 -155 96 -13 57 32 200 62 200 3 0 40 -15 82 -34z m205 -326 c44 -16 71 -83 71 -175 0 -103 -22 -150 -86 -183 -47 -24 -80 -23 -111 5 -20 18 -24 63 -7 80 7 7 15 50 19 97 10 110 25 153 58 171 33 17 26 17 56 5z m-1027 -345 c38 -16 73 -43 73 -55 0 -4 -29 -10 -65 -12 -101 -6 -127 -32 -140 -141 -7 -50 -9 -52 -80 -73 -21 -7 -37 -23 -55 -56 -37 -67 -66 -95 -120 -113 -26 -9 -78 -34 -116 -57 -77 -46 -159 -78 -204 -78 -42 0 -89 -21 -135 -61 -48 -43 -167 -181 -160 -187 2 -3 30 17 62 43 75 62 141 92 233 105 41 6 88 19 104 30 62 39 129 72 208 101 113 42 135 56 174 120 42 70 52 78 111 93 54 14 73 39 73 97 0 53 18 96 43 103 39 10 93 6 112 -8 18 -13 19 -19 8 -79 -25 -146 -79 -202 -408 -423 -132 -89 -278 -191 -324 -228 -153 -121 -261 -168 -342 -146 -51 14 -109 66 -170 153 l-48 68 45 74 c24 40 63 90 85 110 45 40 131 85 166 85 35 0 191 59 284 106 104 54 147 95 206 196 113 196 257 284 380 233z" fill="#1fad1f"/>
<path d="M1534 2378 c-86 -91 -107 -122 -152 -228 -22 -52 -59 -138 -82 -190 -47 -107 -60 -184 -36 -215 11 -15 19 -17 29 -10 8 6 26 18 40 29 39 27 93 36 179 29 109 -8 160 8 224 72 34 34 66 81 94 138 38 78 41 92 35 135 -8 58 -55 145 -91 168 -14 10 -49 21 -77 25 -59 10 -77 28 -77 76 0 48 -18 42 -86 -29z m220 -147 c28 -24 46 -74 46 -128 0 -58 -40 -133 -96 -183 -121 -106 -334 -123 -334 -26 0 39 107 239 157 295 41 45 55 53 98 61 60 10 103 3 129 -19z" fill="#1fad1f"/>
<path d="M611 1214 c-48 -62 -89 -236 -62 -268 13 -16 45 -11 62 10 6 8 30 19 53 24 90 23 116 46 116 101 0 36 -40 99 -82 129 -50 37 -61 37 -87 4z" fill="#1fad1f"/>
<path d="M4765 2414 c-11 -2 -45 -9 -75 -15 -161 -32 -257 -131 -306 -314 -16 -60 -19 -105 -18 -310 0 -215 3 -248 22 -320 41 -149 95 -225 189 -272 46 -22 74 -28 148 -31 132 -6 253 33 340 109 38 34 38 34 52 -41 l9 -45 102 -3 102 -3 0 356 0 355 -130 0 -130 0 0 -219 0 -219 -47 -20 c-110 -47 -200 -54 -269 -23 -33 15 -47 30 -68 73 -38 78 -54 251 -39 426 15 170 40 227 118 270 26 15 64 17 262 16 l232 -1 5 26 c3 14 8 58 11 98 7 70 6 72 -17 77 -12 3 -43 11 -68 16 -46 11 -390 23 -425 14z" fill="#1fad1f"/>
<path d="M9330 1820 c0 -571 1 -600 18 -609 40 -21 231 -52 357 -58 267 -12 399 52 466 226 18 45 23 84 27 202 8 270 -35 393 -163 462 -34 19 -56 22 -145 22 -92 0 -112 -3 -160 -26 -30 -14 -76 -42 -103 -62 -26 -21 -49 -37 -51 -37 -2 0 0 17 5 38 5 20 9 128 9 240 l0 202 -130 0 -130 0 0 -600z m541 23 c46 -27 61 -80 61 -218 0 -138 -12 -193 -50 -236 -36 -41 -99 -53 -206 -39 -44 5 -82 10 -83 10 -2 0 -2 98 -1 217 l3 217 63 33 c75 39 163 45 213 16z" fill="#1fad1f"/>
<path d="M5990 2051 c-68 -22 -111 -44 -173 -87 -26 -19 -51 -34 -55 -34 -5 0 -13 26 -18 58 l-9 57 -102 3 -103 3 0 -441 0 -440 130 0 130 0 0 299 0 299 68 21 c102 31 151 40 214 41 65 0 63 -3 73 105 3 39 9 85 12 103 l5 32 -58 -1 c-33 0 -84 -8 -114 -18z" fill="#1fad1f"/>
<path d="M6523 2059 c-68 -13 -135 -47 -180 -91 -80 -78 -108 -192 -101 -402 6 -147 25 -214 82 -289 40 -52 136 -102 226 -116 136 -22 329 -9 457 30 l65 21 -6 61 c-13 112 -10 108 -75 100 -31 -4 -128 -8 -216 -8 -137 0 -165 3 -188 18 -35 23 -57 57 -64 101 l-6 36 175 0 c199 0 266 10 320 45 60 40 82 93 82 200 0 168 -67 250 -236 290 -68 16 -264 19 -335 4z m293 -212 c32 -37 34 -117 4 -147 -18 -18 -33 -20 -165 -20 l-145 0 0 26 c0 77 43 154 95 167 11 3 58 5 103 4 78 -2 85 -4 108 -30z" fill="#1fad1f"/>
<path d="M7510 2056 c-122 -26 -209 -101 -244 -210 -43 -133 -41 -357 4 -479 66 -177 266 -247 588 -207 91 12 212 46 212 60 0 5 -5 44 -11 86 l-12 76 -30 -6 c-54 -11 -321 -19 -370 -12 -56 9 -111 51 -121 94 -4 15 -9 34 -12 44 -4 15 15 17 203 20 230 4 258 10 320 70 43 41 57 87 57 178 -1 160 -78 251 -243 286 -80 17 -265 17 -341 0z m275 -191 c59 -24 76 -115 30 -160 -23 -24 -29 -25 -166 -25 l-142 0 6 54 c7 70 31 114 70 131 42 19 159 19 202 0z" fill="#1fad1f"/>
<path d="M8753 2055 c-63 -17 -118 -45 -195 -96 l-56 -39 -6 28 c-2 15 -7 44 -11 65 l-6 37 -104 0 -105 0 0 -440 0 -440 130 0 130 0 2 302 3 303 79 34 c50 21 102 35 141 39 58 4 63 3 83 -23 22 -27 22 -35 22 -341 l0 -314 130 0 130 0 0 358 c0 231 -4 371 -11 397 -15 52 -82 119 -134 134 -54 15 -158 13 -222 -4z" fill="#1fad1f"/>
<path d="M10640 2059 c-73 -14 -170 -69 -207 -117 -67 -89 -99 -287 -74 -463 35 -239 157 -329 445 -329 314 1 431 110 443 415 11 246 -46 392 -178 461 -76 39 -306 57 -429 33z m262 -205 c40 -21 59 -66 68 -160 9 -103 -3 -241 -24 -282 -23 -45 -68 -65 -146 -65 -78 0 -123 20 -146 65 -35 68 -35 328 0 396 9 17 26 37 39 44 54 29 154 30 209 2z" fill="#1fad1f"/>
<path d="M11894 2045 c-74 -25 -181 -83 -204 -110 -21 -26 -27 -17 -35 50 l-7 65 -109 0 -109 0 0 -440 0 -440 135 0 135 0 0 300 0 300 48 24 c99 50 209 70 246 43 30 -22 36 -83 36 -379 l0 -288 130 0 130 0 0 334 c0 184 -5 357 -10 387 -23 120 -102 179 -240 179 -53 0 -96 -8 -146 -25z" fill="#1fad1f"/>
<path d="M12732 2055 c-164 -37 -240 -136 -265 -343 -8 -70 -8 -121 1 -199 24 -211 105 -309 291 -349 126 -26 371 -11 494 32 47 16 49 18 43 48 -3 17 -8 55 -12 84 -7 52 -8 54 -33 48 -14 -3 -105 -9 -201 -12 -164 -7 -178 -6 -222 14 -48 21 -70 49 -82 109 l-7 31 208 4 c172 3 215 7 248 21 96 43 130 110 123 244 -6 139 -57 209 -183 254 -78 29 -306 36 -403 14z m282 -189 c40 -17 61 -66 50 -121 -11 -59 -30 -65 -191 -65 -143 0 -143 0 -139 23 3 12 8 40 11 62 8 53 29 84 68 100 42 18 159 19 201 1z" fill="#1fad1f"/>
</g>
</svg>