<svg xmlns="http://www.w3.org/2000/svg" version="1.0" width="1625.000000pt" height="402.000000pt" viewBox="0 0 1625.000000 402.000000" preserveAspectRatio="xMidYMid meet">

<g transform="translate(0.000000,402.000000) scale(0.100000,-0.100000)" fill="#1fad1f" stroke="none">
<path d="M5413 2379 c-252 -22 -435 -125 -515 -287 -27 -54 -33 -79 -36 -152 -6 -122 14 -184 84 -259 92 -100 193 -140 490 -195 104 -20 214 -43 243 -52 122 -40 134 -146 23 -197 -42 -20 -64 -22 -197 -21 -128 0 -166 4 -257 27 -108 27 -250 77 -326 116 -23 12 -46 21 -52 21 -6 0 -10 -61 -10 -176 l0 -175 56 -25 c70 -31 197 -68 312 -91 65 -13 134 -17 277 -17 164 0 201 3 270 22 251 69 384 221 385 438 0 96 -31 183 -90 247 -88 96 -208 143 -505 197 -229 42 -267 53 -300 92 -33 40 -28 81 15 120 40 37 97 50 215 50 165 0 329 -39 486 -116 40 -20 76 -36 81 -36 4 0 8 79 8 176 l0 175 -55 24 c-167 74 -405 111 -602 94z" fill="#1fad1f"/>
<path d="M10415 2380 c-226 -20 -435 -122 -551 -269 -59 -73 -108 -171 -136 -268 -32 -112 -32 -324 0 -436 81 -282 273 -449 579 -502 224 -39 525 8 698 110 l45 26 0 184 0 185 -71 -46 c-225 -146 -488 -185 -676 -99 -275 125 -297 569 -36 722 106 62 278 81 423 47 71 -16 215 -82 300 -137 l55 -36 3 181 c3 207 12 185 -103 242 -161 80 -342 113 -530 96z" fill="#1fad1f"/>
<path d="M6210 1868 c0 -380 3 -497 15 -550 54 -255 252 -401 577 -426 377 -30 648 79 754 301 59 124 63 174 64 695 l0 462 -190 0 -190 0 0 -462 c0 -444 -1 -465 -21 -508 -26 -59 -53 -86 -114 -118 -47 -26 -58 -27 -190 -27 -133 0 -143 1 -191 27 -61 32 -106 83 -123 137 -7 26 -11 182 -11 495 l0 456 -190 0 -190 0 0 -482z" fill="#1fad1f"/>
<path d="M7780 1636 l0 -716 185 0 185 0 0 200 0 200 163 -1 162 0 140 -197 140 -197 214 -3 c185 -2 213 0 208 12 -4 9 -81 115 -172 236 -92 122 -165 222 -163 223 96 48 125 67 162 107 90 96 134 241 122 399 -18 220 -117 353 -310 418 l-81 27 -477 4 -478 3 0 -715z m865 375 c69 -32 105 -93 105 -178 -1 -93 -35 -152 -105 -184 -35 -16 -68 -19 -267 -19 l-228 0 0 200 0 200 228 0 c199 0 232 -3 267 -19z" fill="#1fad1f"/>
<path d="M9230 1635 l0 -715 188 2 187 3 3 713 2 712 -190 0 -190 0 0 -715z" fill="#1fad1f"/>
<path d="M11284 1640 c-144 -390 -259 -712 -256 -715 3 -3 89 -5 192 -5 l187 0 58 160 57 160 317 0 316 0 56 -158 56 -157 184 -3 c101 -1 189 0 195 2 7 3 -80 254 -249 715 l-261 711 -296 0 -295 0 -261 -710z m676 140 l86 -235 -103 -3 c-57 -1 -150 -1 -207 0 l-104 3 86 238 85 238 36 -3 36 -3 85 -235z" fill="#1fad1f"/>
<path d="M12460 2292 c0 -33 -3 -107 -7 -165 l-6 -107 251 0 252 0 2 -547 3 -548 188 -3 187 -2 0 550 0 550 256 0 257 0 -7 53 c-3 28 -6 103 -6 165 l0 112 -685 0 -685 0 0 -58z" fill="#1fad1f"/>
<path d="M14126 2283 c-81 -215 -496 -1348 -496 -1355 0 -5 86 -7 191 -6 l192 3 56 155 56 155 317 3 c247 2 317 0 321 -10 2 -7 26 -74 52 -148 27 -74 53 -141 58 -147 7 -10 59 -13 198 -13 104 0 189 3 189 8 0 4 -116 324 -259 712 l-259 705 -295 3 -295 2 -26 -67z m359 -280 c4 -10 41 -112 82 -228 42 -115 78 -216 80 -222 4 -10 -40 -13 -201 -13 -113 0 -206 3 -206 6 0 6 133 378 159 447 9 22 17 27 45 27 23 0 36 -6 41 -17z" fill="#1fad1f"/>
<path d="M15440 2335 c-107 -30 -191 -102 -239 -205 -22 -47 -26 -69 -26 -150 0 -81 4 -103 26 -150 132 -281 521 -292 670 -18 33 60 34 67 34 168 0 101 -1 108 -34 168 -84 155 -264 233 -431 187z m225 -84 c237 -111 233 -438 -6 -546 -184 -82 -400 47 -416 249 -6 76 8 130 50 193 34 50 108 107 161 122 66 19 147 13 211 -18z" fill="#1fad1f"/>
<path d="M15370 1980 l0 -200 50 0 50 0 0 80 c0 44 4 80 9 80 27 0 46 -19 82 -86 l41 -74 54 0 c30 0 54 3 54 6 0 17 -75 137 -97 154 l-25 19 26 7 c67 16 98 113 56 167 -28 36 -76 47 -197 47 l-103 0 0 -200z m201 120 c23 -13 25 -53 3 -74 -9 -10 -33 -16 -60 -16 l-44 0 0 50 0 50 41 0 c22 0 49 -5 60 -10z" fill="#1fad1f"/>
<path d="M271 2028 c-41 -224 -52 -448 -31 -643 15 -137 8 -127 113 -172 l93 -40 26 71 c14 39 46 122 72 183 31 77 50 139 57 195 13 96 6 400 -11 471 l-12 47 -143 0 -143 0 -21 -112z" fill="#1fad1f"/>
<path d="M814 2121 c32 -36 46 -105 39 -204 -5 -86 -4 -95 21 -141 21 -40 26 -62 25 -115 -1 -75 -9 -113 -26 -118 -7 -3 -14 17 -18 52 -14 105 -18 46 -6 -82 10 -110 10 -136 -4 -188 -20 -75 -65 -171 -99 -209 -38 -42 -34 -67 17 -95 84 -47 141 -97 197 -174 l58 -77 34 102 c20 57 57 154 83 217 55 132 64 188 65 391 0 112 -6 177 -25 284 -41 231 -32 325 36 359 33 16 26 17 -190 17 -220 0 -224 0 -207 -19z" fill="#1fad1f"/>
<path d="M1343 2134 c3 -4 35 -14 69 -24 95 -26 89 -61 -20 -123 -88 -50 -92 -89 -18 -180 72 -89 80 -116 66 -234 -9 -75 -8 -80 21 -135 24 -47 29 -69 28 -120 -1 -72 -10 -110 -26 -115 -7 -3 -14 17 -19 54 -13 103 -17 35 -5 -91 10 -103 9 -130 -4 -181 -21 -79 -59 -161 -97 -208 -29 -37 -30 -41 -22 -95 8 -48 13 -57 34 -63 35 -10 167 -9 215 0 l40 9 -42 1 c-68 2 -50 21 20 21 85 0 175 25 210 58 40 38 57 74 117 257 29 88 76 207 105 265 80 160 143 327 154 405 13 97 25 425 17 469 l-7 36 -421 0 c-232 0 -418 -3 -415 -6z" fill="#1fad1f"/>
<path d="M2576 2118 c-3 -13 -6 -54 -6 -91 0 -57 4 -74 24 -100 53 -72 59 -95 57 -216 -2 -117 -14 -166 -41 -166 -10 0 -18 24 -27 85 -12 80 -63 210 -82 210 -4 0 6 -27 22 -60 27 -53 31 -79 49 -257 17 -186 18 -203 2 -272 -30 -139 -107 -294 -173 -353 -39 -34 -42 -61 -21 -172 12 -64 13 -66 42 -66 21 0 33 -7 45 -27 8 -16 48 -48 89 -72 76 -46 263 -185 383 -285 118 -98 161 -103 408 -55 207 41 418 50 544 24 46 -10 93 -18 104 -19 15 -1 46 34 116 127 215 286 324 539 376 869 25 161 25 560 0 708 -10 58 -23 128 -30 155 l-13 50 -931 3 -931 2 -6 -22z" fill="#1fad1f"/>
<path d="M818 1700 c9 -21 18 -35 20 -30 3 9 -25 70 -33 70 -2 0 4 -18 13 -40z" fill="#1fad1f"/>
<path d="M1412 1349 c6 -16 12 -28 14 -26 5 5 -13 57 -20 57 -3 0 0 -14 6 -31z" fill="#1fad1f"/>
<path d="M577 1307 c-21 -16 -33 -41 -47 -92 -10 -38 -18 -70 -17 -70 1 0 32 -15 70 -33 73 -35 81 -37 72 -22 -4 6 1 29 10 53 18 48 10 118 -19 162 -20 31 -33 31 -69 2z" fill="#1fad1f"/>
<path d="M2142 1200 c-55 -40 -70 -65 -93 -156 -26 -103 -95 -246 -153 -318 -48 -58 -48 -59 -20 -53 95 20 246 28 325 19 46 -6 93 -14 103 -18 15 -6 18 -4 14 7 -3 8 -20 59 -38 115 l-33 101 23 31 c20 27 22 39 18 110 -4 63 -10 89 -32 125 -22 39 -51 67 -69 67 -2 0 -23 -13 -45 -30z" fill="#1fad1f"/>
<path d="M1162 960 c-20 -19 -34 -47 -41 -79 -5 -26 -19 -71 -30 -99 -15 -39 -17 -53 -8 -60 27 -22 197 -99 197 -89 0 1 -9 31 -20 67 -18 60 -19 67 -4 98 19 41 12 114 -17 161 -23 39 -39 39 -77 1z" fill="#1fad1f"/>
</g>
</svg>