<?xml version="1.0" standalone="no"?>
<!DOCTYPE svg PUBLIC "-//W3C//DTD SVG 20010904//EN"
 "http://www.w3.org/TR/2001/REC-SVG-20010904/DTD/svg10.dtd">
<svg version="1.0" xmlns="http://www.w3.org/2000/svg"
 width="1360.000000pt" height="269.000000pt" viewBox="0 0 1360.000000 269.000000"
 preserveAspectRatio="xMidYMid meet">

<g transform="translate(0.000000,269.000000) scale(0.100000,-0.100000)"
fill="#1fad1f" stroke="none">
<path d="M653 2565 c-83 -72 -129 -85 -300 -85 -73 0 -133 -1 -133 -3 0 -31
54 -296 65 -317 9 -18 30 -34 59 -45 64 -25 64 -14 6 -275 -12 -52 -44 -205
-72 -340 -62 -297 -67 -379 -26 -455 50 -97 59 -146 68 -380 7 -199 10 -226
33 -288 60 -164 154 -237 361 -284 89 -20 353 -22 486 -4 263 36 969 210 1304
321 65 22 126 40 136 40 10 0 81 -31 159 -70 258 -127 377 -159 636 -167 186
-6 365 8 402 32 31 21 43 74 43 195 l0 105 -177 -7 c-226 -8 -432 5 -515 33
-192 64 -384 219 -481 389 -38 67 -50 149 -45 314 4 143 4 145 42 223 32 64
57 96 140 178 150 149 295 226 464 247 111 13 414 4 507 -17 65 -14 71 -14 87
3 15 15 98 239 98 264 0 17 -85 47 -181 64 -116 21 -436 24 -554 6 -286 -46
-492 -147 -698 -342 -145 -137 -230 -272 -272 -430 -26 -100 -32 -326 -11
-431 26 -127 94 -259 221 -424 58 -75 105 -138 103 -139 -2 -2 -23 -7 -48 -13
-25 -6 -128 -34 -230 -62 -355 -99 -943 -241 -1078 -261 -269 -39 -519 -21
-664 49 -89 43 -133 82 -167 154 -73 148 -82 457 -17 522 15 15 41 25 80 29
104 13 229 63 407 162 64 35 121 64 128 64 8 0 11 -118 11 -440 l0 -440 220 0
220 0 0 613 0 612 76 95 c149 186 193 264 194 344 0 52 -13 70 -105 143 -29
22 -37 34 -29 42 20 22 131 31 375 31 l246 0 31 139 c18 77 32 146 32 155 0
20 -35 24 -350 36 -830 33 -898 38 -990 85 -65 33 -208 86 -227 84 -4 0 -36
-25 -70 -54z m128 -43 c24 -16 53 -39 64 -52 l20 -23 -20 6 c-11 3 -49 11 -85
17 -88 15 -100 19 -100 35 0 17 38 45 60 45 9 0 36 -13 61 -28z m234 -844 l-7
-443 -24 -21 c-38 -31 -260 -149 -347 -184 -133 -53 -214 -51 -270 8 -38 39
-48 105 -36 227 12 120 113 731 132 795 l13 45 159 5 c88 3 211 7 274 8 l113
2 -7 -442z m557 303 c114 -24 133 -71 76 -181 -36 -66 -157 -212 -170 -204 -4
3 -8 90 -8 193 0 185 6 219 35 207 6 -2 36 -9 67 -15z"/>
<path d="M4080 1271 l0 -1031 220 0 220 0 0 340 0 340 158 0 c304 0 479 29
640 105 119 57 204 117 279 199 294 321 154 761 -310 976 -47 21 -112 46 -145
55 -81 21 -286 32 -709 40 l-353 7 0 -1031z m770 688 c208 -26 377 -124 441
-257 27 -56 30 -148 6 -205 -25 -58 -110 -141 -180 -175 -110 -54 -163 -64
-389 -69 l-208 -5 0 361 0 361 123 0 c67 0 161 -5 207 -11z"/>
<path d="M9490 1266 l0 -1036 196 0 197 0 -7 438 c-3 240 -9 493 -13 562 l-6
125 49 -40 c27 -21 164 -134 304 -250 404 -334 409 -338 444 -331 43 9 138 84
431 341 l260 227 6 -273 c4 -151 7 -392 8 -536 l1 -263 190 0 190 0 0 1022 0
1022 -62 -60 c-176 -170 -776 -723 -923 -849 -109 -94 -101 -90 -131 -70 -46
30 -237 198 -659 581 -225 204 -425 384 -442 399 l-33 27 0 -1036z"/>
<path d="M11908 2295 c-5 -5 -8 -469 -8 -1032 l0 -1023 225 0 225 0 0 340 0
340 143 0 c306 0 485 29 641 104 151 71 333 233 381 338 99 218 61 439 -107
623 -147 160 -362 260 -633 294 -107 14 -857 27 -867 16z m742 -335 c230 -28
387 -110 453 -235 33 -62 31 -172 -6 -246 -53 -109 -172 -187 -324 -214 -46
-9 -149 -14 -250 -15 l-173 0 0 360 0 360 108 0 c59 0 146 -5 192 -10z"/>
<path d="M5870 1370 c0 -777 -2 -900 -14 -900 -8 0 -176 25 -373 54 -669 102
-894 132 -921 121 -27 -11 25 -33 104 -45 38 -5 195 -28 349 -51 242 -35 746
-118 812 -134 31 -7 42 -32 49 -115 l7 -73 111 7 c265 15 603 19 706 7 139
-16 543 -96 644 -128 45 -14 93 -36 107 -49 19 -18 46 -28 95 -36 77 -12 229
-7 244 8 13 13 -23 68 -63 98 -22 16 -39 20 -85 17 -184 -12 -217 -8 -547 63
-176 38 -322 71 -324 72 -11 9 31 38 122 84 127 63 209 124 315 234 122 127
199 255 238 395 23 85 30 336 11 442 -26 149 -130 341 -256 473 -159 166 -392
293 -595 326 -60 9 -499 29 -668 30 l-68 0 0 -900z m675 554 c246 -49 482
-261 546 -489 20 -71 18 -263 -4 -345 -83 -312 -377 -514 -762 -523 l-100 -2
3 425 c1 234 5 547 8 695 l6 270 112 -7 c61 -4 147 -15 191 -24z"/>
<path d="M7553 1633 c3 -345 11 -669 16 -720 34 -308 223 -511 592 -636 217
-74 550 -48 797 61 226 99 371 251 417 437 33 134 37 226 42 851 l5 632 -164
-29 c-89 -16 -182 -32 -204 -35 -23 -4 -46 -9 -51 -13 -6 -3 -15 -228 -22
-546 -13 -571 -23 -761 -43 -827 -14 -48 -86 -124 -154 -164 -176 -103 -383
-110 -563 -19 -168 84 -188 149 -211 660 -7 143 -17 404 -23 580 l-12 320
-180 32 c-99 18 -195 35 -214 38 l-34 6 6 -628z"/>

</g>
</svg>
